<svg 
          width="38" 
          height="29" fill="none" 
          xmlns="http://www.w3.org/2000/svg">
          <path d="M 36.416666666666664 0 L 1.5833333333333333 0 C 1.163407209018866 6.439293542825908e-16 0.7606802073617775 0.1527673564851284 0.4637476156155268 0.42469509840011593 C 0.16681502386927605 0.6966228403151035 4.2847669856627135e-16 1.0654360756278038 0 1.45 L 3.0762429640655376e-16 27.55 C 5.383425187114691e-16 27.934563924372195 0.16681502386927605 28.303378196805717 0.4637476156155268 28.575305938720703 C 0.7606802073617775 28.84723368063569 1.163407209018866 29 1.5833333333333333 29 L 36.416666666666664 29 C 36.83659279098113 29 37.239321019500494 28.84723368063569 37.53625361124674 28.575305938720703 C 37.83318620299299 28.303378196805717 38 27.934563924372195 38 27.55 L 38 1.45 C 38 1.0654360756278038 37.83318620299299 0.6966228403151035 37.53625361124674 0.42469509840011593 C 37.239321019500494 0.1527673564851284 36.83659279098113 9.658940314238861e-16 36.416666666666664 0 L 36.416666666666664 0 Z M 34.83333333333333 26.099999999999998 L 31.666666666666664 26.099999999999998 L 31.666666666666664 24.65 L 23.75 24.65 L 23.75 26.099999999999998 L 3.1666666666666665 26.099999999999998 L 3.1666666666666665 2.9 L 34.83333333333333 2.9 L 34.83333333333333 26.099999999999998 Z M 16.292499939600624 11.17950005531311 C 16.29249993960062 10.521895752847193 16.577754241724808 9.891225780546664 17.085508982340492 9.426229333877563 C 17.593263722956177 8.961232887208462 18.281926336387794 8.7 19 8.7 C 20.504166647791862 8.7 21.707500060399372 9.81650005877018 21.707500060399372 11.17950005531311 C 21.707500060399372 12.557000038027763 20.504166647791862 13.673500442504883 19 13.673500442504883 C 17.495833352208138 13.673500442504883 16.292499939600624 12.557000038027763 16.292499939600624 11.17950005531311 Z M 9.040833393732706 13.470499944686889 C 9.040833393732706 12.440999975800514 9.959166700641314 11.6 11.083333333333332 11.6 C 11.625037995477516 11.599999999999998 12.144555561244488 11.797070197761057 12.52759861946106 12.147856998443602 C 12.910641677677631 12.498643799126148 13.12583327293396 12.974412517249583 13.12583327293396 13.470499944686889 C 13.12583327293396 14.499999913573264 12.20749996602535 15.326499557495117 11.083333333333332 15.326499557495117 C 9.959166700641314 15.326499557495117 9.040833393732706 14.499999913573264 9.040833393732706 13.470499944686889 L 9.040833393732706 13.470499944686889 Z M 24.87416672706604 13.470499944686889 C 24.874166727066044 12.974412517249583 25.089356812338032 12.498643799126148 25.472399870554604 12.147856998443602 C 25.855442928771176 11.797070197761057 26.37496200452248 11.6 26.916666666666664 11.6 C 27.45837132881085 11.6 27.977890404562153 11.797070197761057 28.360933462778725 12.147856998443602 C 28.743976520995297 12.498643799126148 28.959168116251618 12.974412517249583 28.959168116251625 13.470499944686889 C 28.959168116251618 14.499999913573264 28.040833299358685 15.326499557495117 26.916666666666664 15.326499557495117 C 25.792500033974644 15.326499557495117 24.87416672706604 14.499999913573264 24.87416672706604 13.470499944686889 L 24.87416672706604 13.470499944686889 Z M 31.666666666666664 19.053000497817994 L 31.666666666666664 20.3 L 6.333333333333333 20.3 L 6.333333333333333 19.053000497817994 C 6.333333333333333 17.690000501275062 8.787499924500782 16.573500442504884 11.083333333333332 16.573500442504884 C 11.95416668554147 16.573500442504884 12.840833922227224 16.732999339699745 13.6166672706604 17.008499336242675 C 14.8041672706604 16.007999339699744 16.941666742165882 15.326499557495117 19 15.326499557495117 C 21.058333257834118 15.326499557495117 23.1958327293396 16.007999339699744 24.3833327293396 17.008499336242675 C 25.159166077772777 16.732999339699745 26.045833314458527 16.573500442504884 26.916666666666664 16.573500442504884 C 29.212500075499214 16.573500442504884 31.666666666666664 17.690000501275062 31.666666666666664 19.053000497817994 Z" fill="rgb(0,0,0)"/>
        </svg>