<svg 
          width="30" 
          height="22.5" fill="none" 
          xmlns="http://www.w3.org/2000/svg">
          <path d="M 13.125 22.5 C 13.125 22.5 11.25 22.5 11.25 20.625 C 11.25 18.75 13.125 13.125 20.625 13.125 C 28.125 13.125 30 18.75 30 20.625 C 30 22.5 28.125 22.5 28.125 22.5 L 13.125 22.5 Z M 20.625 11.25 C 22.1168427541852 11.25 23.5475842282176 10.65736759454012 24.602476358413696 9.602475464344025 C 25.65736848860979 8.54758333414793 26.25 7.1168427541852 26.25 5.625 C 26.25 4.1331572458148 25.65736848860979 2.70241666585207 24.602476358413696 1.6475245356559753 C 23.5475842282176 0.5926324054598808 22.1168427541852 8.326672684688674e-16 20.625 0 C 19.1331572458148 1.6653345369377348e-15 17.7024157717824 0.5926324054598808 16.647523641586304 1.6475245356559753 C 15.59263151139021 2.70241666585207 15 4.1331572458148 15 5.625 C 15 7.1168427541852 15.59263151139021 8.54758333414793 16.647523641586304 9.602475464344025 C 17.7024157717824 10.65736759454012 19.1331572458148 11.249999999999998 20.625 11.25 L 20.625 11.25 Z M 9.780000150203705 22.5 C 9.502040958032012 21.91465364769101 9.363419209839776 21.272886972874403 9.375 20.625 C 9.375 18.084374964237213 10.649999678134918 15.468749552965164 13.00499975681305 13.649999499320984 C 11.829546019434929 13.287816876545548 10.604903809726238 13.110699669923633 9.375 13.125 C 1.875 13.125 0 18.75 0 20.625 C 0 22.5 1.875 22.5 1.875 22.5 L 9.780000150203705 22.5 Z M 8.4375 11.25 C 9.680702313780785 11.249999999999998 10.872986242175102 10.75613982975483 11.752063035964966 9.877063035964966 C 12.63113982975483 8.997986242175102 13.124999999999998 7.805702313780785 13.125 6.5625 C 13.124999999999998 5.319297686219215 12.63113982975483 4.127013757824898 11.752063035964966 3.247936964035034 C 10.872986242175102 2.3688601702451706 9.680702313780785 1.875 8.4375 1.875 C 7.194297686219215 1.875 6.002013757824898 2.3688601702451706 5.122936964035034 3.247936964035034 C 4.243860170245171 4.127013757824898 3.7500000000000004 5.319297686219215 3.75 6.5625 C 3.750000000000001 7.805702313780785 4.243860170245171 8.997986242175102 5.122936964035034 9.877063035964966 C 6.002013757824898 10.75613982975483 7.194297686219215 11.25 8.4375 11.25 L 8.4375 11.25 Z" fill="rgb(0,0,0)"/>
        </svg>