<svg 
          width="27" 
          height="25.5" fill="none" 
          xmlns="http://www.w3.org/2000/svg">
          <path d="M 21 4.5 C 20.999999999999993 3.30652579665184 20.525894790887833 2.161933332681656 19.681981086730957 1.3180196285247803 C 18.83806738257408 0.47410592436790466 17.69347420334816 1.3322676295501878e-15 16.5 0 L 10.5 0 C 9.30652579665184 0 8.161933332681656 0.47410592436790466 7.31801962852478 1.3180196285247803 C 6.474105924367905 2.161933332681656 6 3.30652579665184 6 4.5 L 4.5 4.5 C 3.30652579665184 4.5 2.161933332681656 4.974105924367905 1.3180196285247803 5.81801962852478 C 0.47410592436790466 6.661933332681656 1.3322676295501878e-15 7.80652579665184 0 9 L 0 21 C 1.3322676295501878e-15 22.19347420334816 0.47410592436790466 23.33806738257408 1.3180196285247803 24.181981086730957 C 2.161933332681656 25.025894790887833 3.30652579665184 25.499999999999993 4.5 25.5 L 22.5 25.5 C 23.69347420334816 25.499999999999993 24.83806738257408 25.025894790887833 25.681981086730957 24.181981086730957 C 26.525894790887833 23.33806738257408 26.999999999999993 22.19347420334816 27 21 L 27 9 C 26.999999999999993 7.80652579665184 26.525894790887833 6.661933332681656 25.681981086730957 5.81801962852478 C 24.83806738257408 4.974105924367905 23.69347420334816 4.5 22.5 4.5 L 21 4.5 Z M 16.5 3 L 10.5 3 C 10.102175250649452 3 9.720644675195217 3.1580355539917946 9.439340114593506 3.439340114593506 C 9.158035553991795 3.720644675195217 9 4.102175250649452 9 4.5 L 18 4.5 C 18 4.102175250649452 17.841964446008205 3.720644675195217 17.560659885406494 3.439340114593506 C 17.279355324804783 3.1580355539917946 16.897824749350548 3 16.5 3 Z M 4.5 7.5 L 22.5 7.5 C 22.897824749350548 7.5 23.279356755316257 7.658035553991795 23.56066131591797 7.939340114593506 C 23.84196587651968 8.220644675195217 24 8.602175250649452 24 9 L 24 21 C 24 21.397824749350548 23.84196587651968 21.779356755316257 23.56066131591797 22.06066131591797 C 23.279356755316257 22.34196587651968 22.897824749350548 22.5 22.5 22.5 L 4.5 22.5 C 4.102175250649452 22.5 3.720644675195217 22.34196587651968 3.439340114593506 22.06066131591797 C 3.1580355539917946 21.779356755316257 3 21.397824749350548 3 21 L 3 9 C 3 8.602175250649452 3.1580355539917946 8.220644675195217 3.439340114593506 7.939340114593506 C 3.720644675195217 7.658035553991795 4.102175250649452 7.5 4.5 7.5 Z" fill="rgb(0,0,0)"/>
        </svg>